# xmcd
# 
# Track frame offsets:
#     150
#     15750
#     30413
#     48270
#     61362
#     78888
#     92910
#     107998
#     121884
#     137787
#     155637
# 
# Disc length: 2341
# 
# Revision: 0
# Processed by: cddbd v1.5.2PL0 Copyright (c) Steve Scherf et al.
# Submitted via: fre:ac v1.0.27
# 
DISCID=8109230b
DTITLE=Jake Owen - Startin' With Me
DYEAR=2006
DGENRE=Country
TTITLE0=The Bad In Me
TTITLE1=Something About A Woman
TTITLE2=Startin' With Me
TTITLE3=Yee Haw
TTITLE4=Ghosts
TTITLE5=Eight Second Ride
TTITLE6=Hard Not To Love You
TTITLE7=The Bottle And Me
TTITLE8=Places To Run
TTITLE9=Long Night With You
TTITLE10=You Can Thank Dixie
EXTD=
EXTT0=
EXTT1=
EXTT2=
EXTT3=
EXTT4=
EXTT5=
EXTT6=
EXTT7=
EXTT8=
EXTT9=
EXTT10=
PLAYORDER=
